<?xml version="1.0" encoding="UTF-8"?>
<svg width="1214px" height="941px" viewBox="0 0 1214 941" version="1.1" xmlns="http://www.w3.org/2000/svg" xmlns:xlink="http://www.w3.org/1999/xlink">
    <title> Bar Graph Animation 5</title>
    <g id="-Bar-Graph-Animation-5" stroke="none" stroke-width="1" fill="none" fill-rule="evenodd">
        <path d="M514.264786,669.112 C514.808786,669.112 515.288786,668.986667 515.704786,668.736 C516.120786,668.485333 516.43012,668.130667 516.632786,667.672 L516.632786,667.672 L516.632786,669 L517.896786,669 L517.896786,664.088 C517.896786,663.053333 517.65412,662.282667 517.168786,661.776 C516.683453,661.269333 515.944786,661.016 514.952786,661.016 C514.419453,661.016 513.867453,661.104 513.296786,661.28 C512.72612,661.456 512.23812,661.688 511.832786,661.976 L511.832786,661.976 L512.264786,662.92 C513.15012,662.365333 514.040786,662.088 514.936786,662.088 C515.53412,662.088 515.96612,662.234667 516.232786,662.528 C516.499453,662.821333 516.632786,663.293333 516.632786,663.944 L516.632786,663.944 L516.632786,664.472 L516.280786,664.472 C515.064786,664.472 514.115453,664.544 513.432786,664.688 C512.75012,664.832 512.259453,665.066667 511.960786,665.392 C511.66212,665.717333 511.512786,666.173333 511.512786,666.76 C511.512786,667.197333 511.635453,667.597333 511.880786,667.96 C512.12612,668.322667 512.459453,668.605333 512.880786,668.808 C513.30212,669.010667 513.763453,669.112 514.264786,669.112 Z M514.440786,668.088 C513.98212,668.088 513.600786,667.952 513.296786,667.68 C512.992786,667.408 512.840786,667.064 512.840786,666.648 C512.840786,666.285333 512.944786,666.010667 513.152786,665.824 C513.360786,665.637333 513.71012,665.504 514.200786,665.424 C514.691453,665.344 515.40612,665.304 516.344786,665.304 L516.344786,665.304 L516.632786,665.304 L516.632786,665.768 C516.632786,666.450667 516.427453,667.008 516.016786,667.44 C515.60612,667.872 515.080786,668.088 514.440786,668.088 Z M502.144786,707 L502.144786,705.896 L499.664786,705.896 L499.664786,695.72 L498.720786,695.72 L495.760786,697.592 L496.368786,698.6 L498.352786,697.352 L498.352786,705.896 L495.872786,705.896 L495.872786,707 L502.144786,707 Z M505.072786,708.824 C505.424786,708.472 505.672786,708.112 505.816786,707.744 C505.960786,707.376 506.032786,706.968 506.032786,706.52 L506.032786,706.52 L506.032786,705.368 L504.400786,705.368 L504.400786,707 L505.168786,707 C505.115453,707.448 504.880786,707.901333 504.464786,708.36 L504.464786,708.36 L505.072786,708.824 Z M511.856786,707.128 C513.147453,707.128 514.128786,706.637333 514.800786,705.656 C515.472786,704.674667 515.808786,703.24 515.808786,701.352 C515.808786,699.464 515.472786,698.032 514.800786,697.056 C514.128786,696.08 513.147453,695.592 511.856786,695.592 C510.56612,695.592 509.584786,696.082667 508.912786,697.064 C508.240786,698.045333 507.904786,699.48 507.904786,701.368 C507.904786,703.245333 508.240786,704.674667 508.912786,705.656 C509.584786,706.637333 510.56612,707.128 511.856786,707.128 Z M511.856786,706.024 C510.960786,706.024 510.299453,705.645333 509.872786,704.888 C509.44612,704.130667 509.232786,702.952 509.232786,701.352 C509.232786,699.752 509.44612,698.578667 509.872786,697.832 C510.299453,697.085333 510.960786,696.712 511.856786,696.712 C512.763453,696.712 513.427453,697.082667 513.848786,697.824 C514.27012,698.565333 514.480786,699.741333 514.480786,701.352 C514.480786,702.952 514.267453,704.130667 513.840786,704.888 C513.41412,705.645333 512.752786,706.024 511.856786,706.024 Z M521.456786,707.128 C522.747453,707.128 523.728786,706.637333 524.400786,705.656 C525.072786,704.674667 525.408786,703.24 525.408786,701.352 C525.408786,699.464 525.072786,698.032 524.400786,697.056 C523.728786,696.08 522.747453,695.592 521.456786,695.592 C520.16612,695.592 519.184786,696.082667 518.512786,697.064 C517.840786,698.045333 517.504786,699.48 517.504786,701.368 C517.504786,703.245333 517.840786,704.674667 518.512786,705.656 C519.184786,706.637333 520.16612,707.128 521.456786,707.128 Z M521.456786,706.024 C520.560786,706.024 519.899453,705.645333 519.472786,704.888 C519.04612,704.130667 518.832786,702.952 518.832786,701.352 C518.832786,699.752 519.04612,698.578667 519.472786,697.832 C519.899453,697.085333 520.560786,696.712 521.456786,696.712 C522.363453,696.712 523.027453,697.082667 523.448786,697.824 C523.87012,698.565333 524.080786,699.741333 524.080786,701.352 C524.080786,702.952 523.867453,704.130667 523.440786,704.888 C523.01412,705.645333 522.352786,706.024 521.456786,706.024 Z M531.056786,707.128 C532.347453,707.128 533.328786,706.637333 534.000786,705.656 C534.672786,704.674667 535.008786,703.24 535.008786,701.352 C535.008786,699.464 534.672786,698.032 534.000786,697.056 C533.328786,696.08 532.347453,695.592 531.056786,695.592 C529.76612,695.592 528.784786,696.082667 528.112786,697.064 C527.440786,698.045333 527.104786,699.48 527.104786,701.368 C527.104786,703.245333 527.440786,704.674667 528.112786,705.656 C528.784786,706.637333 529.76612,707.128 531.056786,707.128 Z M531.056786,706.024 C530.160786,706.024 529.499453,705.645333 529.072786,704.888 C528.64612,704.130667 528.432786,702.952 528.432786,701.352 C528.432786,699.752 528.64612,698.578667 529.072786,697.832 C529.499453,697.085333 530.160786,696.712 531.056786,696.712 C531.963453,696.712 532.627453,697.082667 533.048786,697.824 C533.47012,698.565333 533.680786,699.741333 533.680786,701.352 C533.680786,702.952 533.467453,704.130667 533.040786,704.888 C532.61412,705.645333 531.952786,706.024 531.056786,706.024 Z" id="a1,000" fill="#DBE5FD" fill-rule="nonzero"></path>
        <path d="M514.264786,577.112 C514.808786,577.112 515.288786,576.986667 515.704786,576.736 C516.120786,576.485333 516.43012,576.130667 516.632786,575.672 L516.632786,575.672 L516.632786,577 L517.896786,577 L517.896786,572.088 C517.896786,571.053333 517.65412,570.282667 517.168786,569.776 C516.683453,569.269333 515.944786,569.016 514.952786,569.016 C514.419453,569.016 513.867453,569.104 513.296786,569.28 C512.72612,569.456 512.23812,569.688 511.832786,569.976 L511.832786,569.976 L512.264786,570.92 C513.15012,570.365333 514.040786,570.088 514.936786,570.088 C515.53412,570.088 515.96612,570.234667 516.232786,570.528 C516.499453,570.821333 516.632786,571.293333 516.632786,571.944 L516.632786,571.944 L516.632786,572.472 L516.280786,572.472 C515.064786,572.472 514.115453,572.544 513.432786,572.688 C512.75012,572.832 512.259453,573.066667 511.960786,573.392 C511.66212,573.717333 511.512786,574.173333 511.512786,574.76 C511.512786,575.197333 511.635453,575.597333 511.880786,575.96 C512.12612,576.322667 512.459453,576.605333 512.880786,576.808 C513.30212,577.010667 513.763453,577.112 514.264786,577.112 Z M514.440786,576.088 C513.98212,576.088 513.600786,575.952 513.296786,575.68 C512.992786,575.408 512.840786,575.064 512.840786,574.648 C512.840786,574.285333 512.944786,574.010667 513.152786,573.824 C513.360786,573.637333 513.71012,573.504 514.200786,573.424 C514.691453,573.344 515.40612,573.304 516.344786,573.304 L516.344786,573.304 L516.632786,573.304 L516.632786,573.768 C516.632786,574.450667 516.427453,575.008 516.016786,575.44 C515.60612,575.872 515.080786,576.088 514.440786,576.088 Z" id="a" fill="#DBE5FD" fill-rule="nonzero"></path>
        <path d="M610.288786,577.112 C610.971453,577.112 611.57412,576.941333 612.096786,576.6 C612.619453,576.258667 613.024786,575.781333 613.312786,575.168 C613.600786,574.554667 613.744786,573.842667 613.744786,573.032 C613.744786,572.232 613.600786,571.528 613.312786,570.92 C613.024786,570.312 612.619453,569.842667 612.096786,569.512 C611.57412,569.181333 610.971453,569.016 610.288786,569.016 C609.680786,569.016 609.15012,569.149333 608.696786,569.416 C608.243453,569.682667 607.899453,570.061333 607.664786,570.552 L607.664786,570.552 L607.664786,565.72 L606.368786,565.72 L606.368786,577 L607.664786,577 L607.664786,575.576 C607.899453,576.066667 608.243453,576.445333 608.696786,576.712 C609.15012,576.978667 609.680786,577.112 610.288786,577.112 Z M610.032786,576.04 C609.275453,576.04 608.691453,575.781333 608.280786,575.264 C607.87012,574.746667 607.664786,574.013333 607.664786,573.064 C607.664786,572.114667 607.87012,571.384 608.280786,570.872 C608.691453,570.36 609.275453,570.104 610.032786,570.104 C610.79012,570.104 611.376786,570.36 611.792786,570.872 C612.208786,571.384 612.416786,572.104 612.416786,573.032 C612.416786,573.981333 612.208786,574.72 611.792786,575.248 C611.376786,575.776 610.79012,576.04 610.032786,576.04 Z" id="b" fill="#DBE5FD" fill-rule="nonzero"></path>
        <polygon id="Line" fill="#FFFFFF" fill-rule="nonzero" points="534.551282 682 534.551282 683 495.551282 683 495.551282 682"></polygon>
        <polygon id="Line-Copy" fill="#FFFFFF" fill-rule="nonzero" points="627.551282 682 627.551282 683 588.551282 683 588.551282 682"></polygon>
        <polygon id="Line-Copy-2" fill="#FFFFFF" fill-rule="nonzero" points="721.551282 682 721.551282 683 682.551282 683 682.551282 682"></polygon>
        <polygon id="Line-Copy-3" fill="#FFFFFF" fill-rule="nonzero" points="815.551282 682 815.551282 683 776.551282 683 776.551282 682"></polygon>
        <path d="M608.713288,669.079493 C609.395954,669.079493 609.998621,668.908826 610.521288,668.567493 C611.043954,668.226159 611.449288,667.748826 611.737288,667.135493 C612.025288,666.522159 612.169288,665.810159 612.169288,664.999493 C612.169288,664.199493 612.025288,663.495493 611.737288,662.887493 C611.449288,662.279493 611.043954,661.810159 610.521288,661.479493 C609.998621,661.148826 609.395954,660.983493 608.713288,660.983493 C608.105288,660.983493 607.574621,661.116826 607.121288,661.383493 C606.667954,661.650159 606.323954,662.028826 606.089288,662.519493 L606.089288,662.519493 L606.089288,657.687493 L604.793288,657.687493 L604.793288,668.967493 L606.089288,668.967493 L606.089288,667.543493 C606.323954,668.034159 606.667954,668.412826 607.121288,668.679493 C607.574621,668.946159 608.105288,669.079493 608.713288,669.079493 Z M608.457288,668.007493 C607.699954,668.007493 607.115954,667.748826 606.705288,667.231493 C606.294621,666.714159 606.089288,665.980826 606.089288,665.031493 C606.089288,664.082159 606.294621,663.351493 606.705288,662.839493 C607.115954,662.327493 607.699954,662.071493 608.457288,662.071493 C609.214621,662.071493 609.801288,662.327493 610.217288,662.839493 C610.633288,663.351493 610.841288,664.071493 610.841288,664.999493 C610.841288,665.948826 610.633288,666.687493 610.217288,667.215493 C609.801288,667.743493 609.214621,668.007493 608.457288,668.007493 Z M595.841288,706.967493 L595.841288,705.863493 L590.273288,705.863493 L593.473288,702.391493 C594.145288,701.655493 594.627954,700.988826 594.921288,700.391493 C595.214621,699.794159 595.361288,699.170159 595.361288,698.519493 C595.361288,697.612826 595.059954,696.892826 594.457288,696.359493 C593.854621,695.826159 593.035954,695.559493 592.001288,695.559493 C591.318621,695.559493 590.638621,695.684826 589.961288,695.935493 C589.283954,696.186159 588.721288,696.524826 588.273288,696.951493 L588.273288,696.951493 L588.769288,697.959493 C589.814621,697.095493 590.881288,696.663493 591.969288,696.663493 C592.630621,696.663493 593.142621,696.828826 593.505288,697.159493 C593.867954,697.490159 594.049288,697.964826 594.049288,698.583493 C594.049288,699.063493 593.929288,699.540826 593.689288,700.015493 C593.449288,700.490159 593.062621,701.026159 592.529288,701.623493 L592.529288,701.623493 L588.577288,705.975493 L588.577288,706.967493 L595.841288,706.967493 Z M598.497288,708.791493 C598.849288,708.439493 599.097288,708.079493 599.241288,707.711493 C599.385288,707.343493 599.457288,706.935493 599.457288,706.487493 L599.457288,706.487493 L599.457288,705.335493 L597.825288,705.335493 L597.825288,706.967493 L598.593288,706.967493 C598.539954,707.415493 598.305288,707.868826 597.889288,708.327493 L597.889288,708.327493 L598.497288,708.791493 Z M605.281288,707.095493 C606.571954,707.095493 607.553288,706.604826 608.225288,705.623493 C608.897288,704.642159 609.233288,703.207493 609.233288,701.319493 C609.233288,699.431493 608.897288,697.999493 608.225288,697.023493 C607.553288,696.047493 606.571954,695.559493 605.281288,695.559493 C603.990621,695.559493 603.009288,696.050159 602.337288,697.031493 C601.665288,698.012826 601.329288,699.447493 601.329288,701.335493 C601.329288,703.212826 601.665288,704.642159 602.337288,705.623493 C603.009288,706.604826 603.990621,707.095493 605.281288,707.095493 Z M605.281288,705.991493 C604.385288,705.991493 603.723954,705.612826 603.297288,704.855493 C602.870621,704.098159 602.657288,702.919493 602.657288,701.319493 C602.657288,699.719493 602.870621,698.546159 603.297288,697.799493 C603.723954,697.052826 604.385288,696.679493 605.281288,696.679493 C606.187954,696.679493 606.851954,697.050159 607.273288,697.791493 C607.694621,698.532826 607.905288,699.708826 607.905288,701.319493 C607.905288,702.919493 607.691954,704.098159 607.265288,704.855493 C606.838621,705.612826 606.177288,705.991493 605.281288,705.991493 Z M614.881288,707.095493 C616.171954,707.095493 617.153288,706.604826 617.825288,705.623493 C618.497288,704.642159 618.833288,703.207493 618.833288,701.319493 C618.833288,699.431493 618.497288,697.999493 617.825288,697.023493 C617.153288,696.047493 616.171954,695.559493 614.881288,695.559493 C613.590621,695.559493 612.609288,696.050159 611.937288,697.031493 C611.265288,698.012826 610.929288,699.447493 610.929288,701.335493 C610.929288,703.212826 611.265288,704.642159 611.937288,705.623493 C612.609288,706.604826 613.590621,707.095493 614.881288,707.095493 Z M614.881288,705.991493 C613.985288,705.991493 613.323954,705.612826 612.897288,704.855493 C612.470621,704.098159 612.257288,702.919493 612.257288,701.319493 C612.257288,699.719493 612.470621,698.546159 612.897288,697.799493 C613.323954,697.052826 613.985288,696.679493 614.881288,696.679493 C615.787954,696.679493 616.451954,697.050159 616.873288,697.791493 C617.294621,698.532826 617.505288,699.708826 617.505288,701.319493 C617.505288,702.919493 617.291954,704.098159 616.865288,704.855493 C616.438621,705.612826 615.777288,705.991493 614.881288,705.991493 Z M624.481288,707.095493 C625.771954,707.095493 626.753288,706.604826 627.425288,705.623493 C628.097288,704.642159 628.433288,703.207493 628.433288,701.319493 C628.433288,699.431493 628.097288,697.999493 627.425288,697.023493 C626.753288,696.047493 625.771954,695.559493 624.481288,695.559493 C623.190621,695.559493 622.209288,696.050159 621.537288,697.031493 C620.865288,698.012826 620.529288,699.447493 620.529288,701.335493 C620.529288,703.212826 620.865288,704.642159 621.537288,705.623493 C622.209288,706.604826 623.190621,707.095493 624.481288,707.095493 Z M624.481288,705.991493 C623.585288,705.991493 622.923954,705.612826 622.497288,704.855493 C622.070621,704.098159 621.857288,702.919493 621.857288,701.319493 C621.857288,699.719493 622.070621,698.546159 622.497288,697.799493 C622.923954,697.052826 623.585288,696.679493 624.481288,696.679493 C625.387954,696.679493 626.051954,697.050159 626.473288,697.791493 C626.894621,698.532826 627.105288,699.708826 627.105288,701.319493 C627.105288,702.919493 626.891954,704.098159 626.465288,704.855493 C626.038621,705.612826 625.377288,705.991493 624.481288,705.991493 Z" id="b2,000" fill="#DBE5FD" fill-rule="nonzero"></path>
        <path d="M702.483088,669.079493 C703.016422,669.079493 703.533755,668.988826 704.035088,668.807493 C704.536422,668.626159 704.952422,668.380826 705.283088,668.071493 L705.283088,668.071493 L704.851088,667.111493 C704.115088,667.708826 703.368422,668.007493 702.611088,668.007493 C701.811088,668.007493 701.187088,667.751493 700.739088,667.239493 C700.291088,666.727493 700.067088,666.002159 700.067088,665.063493 C700.067088,664.114159 700.291088,663.378159 700.739088,662.855493 C701.187088,662.332826 701.811088,662.071493 702.611088,662.071493 C703.368422,662.071493 704.115088,662.370159 704.851088,662.967493 L704.851088,662.967493 L705.283088,662.007493 C704.973755,661.698159 704.568422,661.450159 704.067088,661.263493 C703.565755,661.076826 703.053755,660.983493 702.531088,660.983493 C701.763088,660.983493 701.093755,661.154159 700.523088,661.495493 C699.952422,661.836826 699.509755,662.314159 699.195088,662.927493 C698.880422,663.540826 698.723088,664.252826 698.723088,665.063493 C698.723088,665.874159 698.875088,666.580826 699.179088,667.183493 C699.483088,667.786159 699.917755,668.252826 700.483088,668.583493 C701.048422,668.914159 701.715088,669.079493 702.483088,669.079493 Z M688.115088,706.967493 L688.115088,704.519493 L689.811088,704.519493 L689.811088,703.431493 L688.115088,703.431493 L688.115088,695.687493 L687.043088,695.687493 L681.603088,703.527493 L681.603088,704.519493 L686.819088,704.519493 L686.819088,706.967493 L688.115088,706.967493 Z M686.819088,703.431493 L682.963088,703.431493 L686.819088,697.879493 L686.819088,703.431493 Z M692.067088,708.791493 C692.419088,708.439493 692.667088,708.079493 692.811088,707.711493 C692.955088,707.343493 693.027088,706.935493 693.027088,706.487493 L693.027088,706.487493 L693.027088,705.335493 L691.395088,705.335493 L691.395088,706.967493 L692.163088,706.967493 C692.109755,707.415493 691.875088,707.868826 691.459088,708.327493 L691.459088,708.327493 L692.067088,708.791493 Z M698.851088,707.095493 C700.141755,707.095493 701.123088,706.604826 701.795088,705.623493 C702.467088,704.642159 702.803088,703.207493 702.803088,701.319493 C702.803088,699.431493 702.467088,697.999493 701.795088,697.023493 C701.123088,696.047493 700.141755,695.559493 698.851088,695.559493 C697.560422,695.559493 696.579088,696.050159 695.907088,697.031493 C695.235088,698.012826 694.899088,699.447493 694.899088,701.335493 C694.899088,703.212826 695.235088,704.642159 695.907088,705.623493 C696.579088,706.604826 697.560422,707.095493 698.851088,707.095493 Z M698.851088,705.991493 C697.955088,705.991493 697.293755,705.612826 696.867088,704.855493 C696.440422,704.098159 696.227088,702.919493 696.227088,701.319493 C696.227088,699.719493 696.440422,698.546159 696.867088,697.799493 C697.293755,697.052826 697.955088,696.679493 698.851088,696.679493 C699.757755,696.679493 700.421755,697.050159 700.843088,697.791493 C701.264422,698.532826 701.475088,699.708826 701.475088,701.319493 C701.475088,702.919493 701.261755,704.098159 700.835088,704.855493 C700.408422,705.612826 699.747088,705.991493 698.851088,705.991493 Z M708.451088,707.095493 C709.741755,707.095493 710.723088,706.604826 711.395088,705.623493 C712.067088,704.642159 712.403088,703.207493 712.403088,701.319493 C712.403088,699.431493 712.067088,697.999493 711.395088,697.023493 C710.723088,696.047493 709.741755,695.559493 708.451088,695.559493 C707.160422,695.559493 706.179088,696.050159 705.507088,697.031493 C704.835088,698.012826 704.499088,699.447493 704.499088,701.335493 C704.499088,703.212826 704.835088,704.642159 705.507088,705.623493 C706.179088,706.604826 707.160422,707.095493 708.451088,707.095493 Z M708.451088,705.991493 C707.555088,705.991493 706.893755,705.612826 706.467088,704.855493 C706.040422,704.098159 705.827088,702.919493 705.827088,701.319493 C705.827088,699.719493 706.040422,698.546159 706.467088,697.799493 C706.893755,697.052826 707.555088,696.679493 708.451088,696.679493 C709.357755,696.679493 710.021755,697.050159 710.443088,697.791493 C710.864422,698.532826 711.075088,699.708826 711.075088,701.319493 C711.075088,702.919493 710.861755,704.098159 710.435088,704.855493 C710.008422,705.612826 709.347088,705.991493 708.451088,705.991493 Z M718.051088,707.095493 C719.341755,707.095493 720.323088,706.604826 720.995088,705.623493 C721.667088,704.642159 722.003088,703.207493 722.003088,701.319493 C722.003088,699.431493 721.667088,697.999493 720.995088,697.023493 C720.323088,696.047493 719.341755,695.559493 718.051088,695.559493 C716.760422,695.559493 715.779088,696.050159 715.107088,697.031493 C714.435088,698.012826 714.099088,699.447493 714.099088,701.335493 C714.099088,703.212826 714.435088,704.642159 715.107088,705.623493 C715.779088,706.604826 716.760422,707.095493 718.051088,707.095493 Z M718.051088,705.991493 C717.155088,705.991493 716.493755,705.612826 716.067088,704.855493 C715.640422,704.098159 715.427088,702.919493 715.427088,701.319493 C715.427088,699.719493 715.640422,698.546159 716.067088,697.799493 C716.493755,697.052826 717.155088,696.679493 718.051088,696.679493 C718.957755,696.679493 719.621755,697.050159 720.043088,697.791493 C720.464422,698.532826 720.675088,699.708826 720.675088,701.319493 C720.675088,702.919493 720.461755,704.098159 720.035088,704.855493 C719.608422,705.612826 718.947088,705.991493 718.051088,705.991493 Z" id="c4,000" fill="#DBE5FD" fill-rule="nonzero"></path>
        <path d="M794.785288,669.079493 C795.393288,669.079493 795.923954,668.946159 796.377288,668.679493 C796.830621,668.412826 797.174621,668.034159 797.409288,667.543493 L797.409288,667.543493 L797.409288,668.967493 L798.705288,668.967493 L798.705288,657.687493 L797.409288,657.687493 L797.409288,662.519493 C797.174621,662.028826 796.830621,661.650159 796.377288,661.383493 C795.923954,661.116826 795.393288,660.983493 794.785288,660.983493 C794.102621,660.983493 793.499954,661.148826 792.977288,661.479493 C792.454621,661.810159 792.049288,662.279493 791.761288,662.887493 C791.473288,663.495493 791.329288,664.199493 791.329288,664.999493 C791.329288,665.810159 791.473288,666.522159 791.761288,667.135493 C792.049288,667.748826 792.454621,668.226159 792.977288,668.567493 C793.499954,668.908826 794.102621,669.079493 794.785288,669.079493 Z M795.041288,668.007493 C794.283954,668.007493 793.694621,667.743493 793.273288,667.215493 C792.851954,666.687493 792.641288,665.948826 792.641288,664.999493 C792.641288,664.071493 792.851954,663.351493 793.273288,662.839493 C793.694621,662.327493 794.283954,662.071493 795.041288,662.071493 C795.798621,662.071493 796.382621,662.327493 796.793288,662.839493 C797.203954,663.351493 797.409288,664.082159 797.409288,665.031493 C797.409288,665.980826 797.203954,666.714159 796.793288,667.231493 C796.382621,667.748826 795.798621,668.007493 795.041288,668.007493 Z M782.841288,706.967493 L782.841288,705.863493 L777.273288,705.863493 L780.473288,702.391493 C781.145288,701.655493 781.627954,700.988826 781.921288,700.391493 C782.214621,699.794159 782.361288,699.170159 782.361288,698.519493 C782.361288,697.612826 782.059954,696.892826 781.457288,696.359493 C780.854621,695.826159 780.035954,695.559493 779.001288,695.559493 C778.318621,695.559493 777.638621,695.684826 776.961288,695.935493 C776.283954,696.186159 775.721288,696.524826 775.273288,696.951493 L775.273288,696.951493 L775.769288,697.959493 C776.814621,697.095493 777.881288,696.663493 778.969288,696.663493 C779.630621,696.663493 780.142621,696.828826 780.505288,697.159493 C780.867954,697.490159 781.049288,697.964826 781.049288,698.583493 C781.049288,699.063493 780.929288,699.540826 780.689288,700.015493 C780.449288,700.490159 780.062621,701.026159 779.529288,701.623493 L779.529288,701.623493 L775.577288,705.975493 L775.577288,706.967493 L782.841288,706.967493 Z M785.497288,708.791493 C785.849288,708.439493 786.097288,708.079493 786.241288,707.711493 C786.385288,707.343493 786.457288,706.935493 786.457288,706.487493 L786.457288,706.487493 L786.457288,705.335493 L784.825288,705.335493 L784.825288,706.967493 L785.593288,706.967493 C785.539954,707.415493 785.305288,707.868826 784.889288,708.327493 L784.889288,708.327493 L785.497288,708.791493 Z M792.281288,707.095493 C793.571954,707.095493 794.553288,706.604826 795.225288,705.623493 C795.897288,704.642159 796.233288,703.207493 796.233288,701.319493 C796.233288,699.431493 795.897288,697.999493 795.225288,697.023493 C794.553288,696.047493 793.571954,695.559493 792.281288,695.559493 C790.990621,695.559493 790.009288,696.050159 789.337288,697.031493 C788.665288,698.012826 788.329288,699.447493 788.329288,701.335493 C788.329288,703.212826 788.665288,704.642159 789.337288,705.623493 C790.009288,706.604826 790.990621,707.095493 792.281288,707.095493 Z M792.281288,705.991493 C791.385288,705.991493 790.723954,705.612826 790.297288,704.855493 C789.870621,704.098159 789.657288,702.919493 789.657288,701.319493 C789.657288,699.719493 789.870621,698.546159 790.297288,697.799493 C790.723954,697.052826 791.385288,696.679493 792.281288,696.679493 C793.187954,696.679493 793.851954,697.050159 794.273288,697.791493 C794.694621,698.532826 794.905288,699.708826 794.905288,701.319493 C794.905288,702.919493 794.691954,704.098159 794.265288,704.855493 C793.838621,705.612826 793.177288,705.991493 792.281288,705.991493 Z M801.881288,707.095493 C803.171954,707.095493 804.153288,706.604826 804.825288,705.623493 C805.497288,704.642159 805.833288,703.207493 805.833288,701.319493 C805.833288,699.431493 805.497288,697.999493 804.825288,697.023493 C804.153288,696.047493 803.171954,695.559493 801.881288,695.559493 C800.590621,695.559493 799.609288,696.050159 798.937288,697.031493 C798.265288,698.012826 797.929288,699.447493 797.929288,701.335493 C797.929288,703.212826 798.265288,704.642159 798.937288,705.623493 C799.609288,706.604826 800.590621,707.095493 801.881288,707.095493 Z M801.881288,705.991493 C800.985288,705.991493 800.323954,705.612826 799.897288,704.855493 C799.470621,704.098159 799.257288,702.919493 799.257288,701.319493 C799.257288,699.719493 799.470621,698.546159 799.897288,697.799493 C800.323954,697.052826 800.985288,696.679493 801.881288,696.679493 C802.787954,696.679493 803.451954,697.050159 803.873288,697.791493 C804.294621,698.532826 804.505288,699.708826 804.505288,701.319493 C804.505288,702.919493 804.291954,704.098159 803.865288,704.855493 C803.438621,705.612826 802.777288,705.991493 801.881288,705.991493 Z M811.481288,707.095493 C812.771954,707.095493 813.753288,706.604826 814.425288,705.623493 C815.097288,704.642159 815.433288,703.207493 815.433288,701.319493 C815.433288,699.431493 815.097288,697.999493 814.425288,697.023493 C813.753288,696.047493 812.771954,695.559493 811.481288,695.559493 C810.190621,695.559493 809.209288,696.050159 808.537288,697.031493 C807.865288,698.012826 807.529288,699.447493 807.529288,701.335493 C807.529288,703.212826 807.865288,704.642159 808.537288,705.623493 C809.209288,706.604826 810.190621,707.095493 811.481288,707.095493 Z M811.481288,705.991493 C810.585288,705.991493 809.923954,705.612826 809.497288,704.855493 C809.070621,704.098159 808.857288,702.919493 808.857288,701.319493 C808.857288,699.719493 809.070621,698.546159 809.497288,697.799493 C809.923954,697.052826 810.585288,696.679493 811.481288,696.679493 C812.387954,696.679493 813.051954,697.050159 813.473288,697.791493 C813.894621,698.532826 814.105288,699.708826 814.105288,701.319493 C814.105288,702.919493 813.891954,704.098159 813.465288,704.855493 C813.038621,705.612826 812.377288,705.991493 811.481288,705.991493 Z" id="d2,000" fill="#DBE5FD" fill-rule="nonzero"></path>
        <path d="M407.123094,290.598636 L407.123094,288.456636 L408.607094,288.456636 L408.607094,287.504636 L407.123094,287.504636 L407.123094,280.728636 L406.185094,280.728636 L401.425094,287.588636 L401.425094,288.456636 L405.989094,288.456636 L405.989094,290.598636 L407.123094,290.598636 Z M405.989094,287.504636 L402.615094,287.504636 L405.989094,282.646636 L405.989094,287.504636 Z M410.581094,292.194636 C410.889094,291.886636 411.106094,291.571636 411.232094,291.249636 C411.358094,290.927636 411.421094,290.570636 411.421094,290.178636 L411.421094,290.178636 L411.421094,289.170636 L409.993094,289.170636 L409.993094,290.598636 L410.665094,290.598636 C410.618427,290.990636 410.413094,291.387303 410.049094,291.788636 L410.049094,291.788636 L410.581094,292.194636 Z M416.517094,290.710636 C417.646427,290.710636 418.505094,290.281303 419.093094,289.422636 C419.681094,288.56397 419.975094,287.308636 419.975094,285.656636 C419.975094,284.004636 419.681094,282.751636 419.093094,281.897636 C418.505094,281.043636 417.646427,280.616636 416.517094,280.616636 C415.387761,280.616636 414.529094,281.04597 413.941094,281.904636 C413.353094,282.763303 413.059094,284.018636 413.059094,285.670636 C413.059094,287.313303 413.353094,288.56397 413.941094,289.422636 C414.529094,290.281303 415.387761,290.710636 416.517094,290.710636 Z M416.517094,289.744636 C415.733094,289.744636 415.154427,289.413303 414.781094,288.750636 C414.407761,288.08797 414.221094,287.056636 414.221094,285.656636 C414.221094,284.256636 414.407761,283.22997 414.781094,282.576636 C415.154427,281.923303 415.733094,281.596636 416.517094,281.596636 C417.310427,281.596636 417.891427,281.92097 418.260094,282.569636 C418.628761,283.218303 418.813094,284.247303 418.813094,285.656636 C418.813094,287.056636 418.626427,288.08797 418.253094,288.750636 C417.879761,289.413303 417.301094,289.744636 416.517094,289.744636 Z M424.917094,290.710636 C426.046427,290.710636 426.905094,290.281303 427.493094,289.422636 C428.081094,288.56397 428.375094,287.308636 428.375094,285.656636 C428.375094,284.004636 428.081094,282.751636 427.493094,281.897636 C426.905094,281.043636 426.046427,280.616636 424.917094,280.616636 C423.787761,280.616636 422.929094,281.04597 422.341094,281.904636 C421.753094,282.763303 421.459094,284.018636 421.459094,285.670636 C421.459094,287.313303 421.753094,288.56397 422.341094,289.422636 C422.929094,290.281303 423.787761,290.710636 424.917094,290.710636 Z M424.917094,289.744636 C424.133094,289.744636 423.554427,289.413303 423.181094,288.750636 C422.807761,288.08797 422.621094,287.056636 422.621094,285.656636 C422.621094,284.256636 422.807761,283.22997 423.181094,282.576636 C423.554427,281.923303 424.133094,281.596636 424.917094,281.596636 C425.710427,281.596636 426.291427,281.92097 426.660094,282.569636 C427.028761,283.218303 427.213094,284.247303 427.213094,285.656636 C427.213094,287.056636 427.026427,288.08797 426.653094,288.750636 C426.279761,289.413303 425.701094,289.744636 424.917094,289.744636 Z M433.317094,290.710636 C434.446427,290.710636 435.305094,290.281303 435.893094,289.422636 C436.481094,288.56397 436.775094,287.308636 436.775094,285.656636 C436.775094,284.004636 436.481094,282.751636 435.893094,281.897636 C435.305094,281.043636 434.446427,280.616636 433.317094,280.616636 C432.187761,280.616636 431.329094,281.04597 430.741094,281.904636 C430.153094,282.763303 429.859094,284.018636 429.859094,285.670636 C429.859094,287.313303 430.153094,288.56397 430.741094,289.422636 C431.329094,290.281303 432.187761,290.710636 433.317094,290.710636 Z M433.317094,289.744636 C432.533094,289.744636 431.954427,289.413303 431.581094,288.750636 C431.207761,288.08797 431.021094,287.056636 431.021094,285.656636 C431.021094,284.256636 431.207761,283.22997 431.581094,282.576636 C431.954427,281.923303 432.533094,281.596636 433.317094,281.596636 C434.110427,281.596636 434.691427,281.92097 435.060094,282.569636 C435.428761,283.218303 435.613094,284.247303 435.613094,285.656636 C435.613094,287.056636 435.426427,288.08797 435.053094,288.750636 C434.679761,289.413303 434.101094,289.744636 433.317094,289.744636 Z" id="4,000" fill="#DBE5FD" fill-rule="nonzero"></path>
        <path d="M404.813094,357.38431 C405.811761,357.38431 406.602761,357.136977 407.186094,356.64231 C407.769427,356.147644 408.061094,355.470977 408.061094,354.61231 C408.061094,353.99631 407.907094,353.48531 407.599094,353.07931 C407.291094,352.67331 406.847761,352.38631 406.269094,352.21831 C406.763761,352.031644 407.148761,351.725977 407.424094,351.30131 C407.699427,350.876644 407.837094,350.379644 407.837094,349.81031 C407.837094,349.044977 407.573427,348.435977 407.046094,347.98331 C406.518761,347.530644 405.807094,347.30431 404.911094,347.30431 C404.285761,347.30431 403.683761,347.411644 403.105094,347.62631 C402.526427,347.840977 402.036427,348.139644 401.635094,348.52231 L401.635094,348.52231 L402.069094,349.40431 C402.983761,348.64831 403.917094,348.27031 404.869094,348.27031 C405.457094,348.27031 405.909761,348.412644 406.227094,348.69731 C406.544427,348.981977 406.703094,349.39031 406.703094,349.92231 C406.703094,350.528977 406.507094,350.99331 406.115094,351.31531 C405.723094,351.63731 405.163094,351.79831 404.435094,351.79831 L404.435094,351.79831 L403.525094,351.79831 L403.525094,352.76431 L404.659094,352.76431 C406.171094,352.76431 406.927094,353.36631 406.927094,354.57031 C406.927094,355.176977 406.745094,355.636644 406.381094,355.94931 C406.017094,356.261977 405.485094,356.41831 404.785094,356.41831 C403.777094,356.41831 402.825094,356.04031 401.929094,355.28431 L401.929094,355.28431 L401.495094,356.16631 C401.896427,356.548977 402.391094,356.847644 402.979094,357.06231 C403.567094,357.276977 404.178427,357.38431 404.813094,357.38431 Z M410.581094,358.88231 C410.889094,358.57431 411.106094,358.25931 411.232094,357.93731 C411.358094,357.61531 411.421094,357.25831 411.421094,356.86631 L411.421094,356.86631 L411.421094,355.85831 L409.993094,355.85831 L409.993094,357.28631 L410.665094,357.28631 C410.618427,357.67831 410.413094,358.074977 410.049094,358.47631 L410.049094,358.47631 L410.581094,358.88231 Z M416.517094,357.39831 C417.646427,357.39831 418.505094,356.968977 419.093094,356.11031 C419.681094,355.251644 419.975094,353.99631 419.975094,352.34431 C419.975094,350.69231 419.681094,349.43931 419.093094,348.58531 C418.505094,347.73131 417.646427,347.30431 416.517094,347.30431 C415.387761,347.30431 414.529094,347.733644 413.941094,348.59231 C413.353094,349.450977 413.059094,350.70631 413.059094,352.35831 C413.059094,354.000977 413.353094,355.251644 413.941094,356.11031 C414.529094,356.968977 415.387761,357.39831 416.517094,357.39831 Z M416.517094,356.43231 C415.733094,356.43231 415.154427,356.100977 414.781094,355.43831 C414.407761,354.775644 414.221094,353.74431 414.221094,352.34431 C414.221094,350.94431 414.407761,349.917644 414.781094,349.26431 C415.154427,348.610977 415.733094,348.28431 416.517094,348.28431 C417.310427,348.28431 417.891427,348.608644 418.260094,349.25731 C418.628761,349.905977 418.813094,350.934977 418.813094,352.34431 C418.813094,353.74431 418.626427,354.775644 418.253094,355.43831 C417.879761,356.100977 417.301094,356.43231 416.517094,356.43231 Z M424.917094,357.39831 C426.046427,357.39831 426.905094,356.968977 427.493094,356.11031 C428.081094,355.251644 428.375094,353.99631 428.375094,352.34431 C428.375094,350.69231 428.081094,349.43931 427.493094,348.58531 C426.905094,347.73131 426.046427,347.30431 424.917094,347.30431 C423.787761,347.30431 422.929094,347.733644 422.341094,348.59231 C421.753094,349.450977 421.459094,350.70631 421.459094,352.35831 C421.459094,354.000977 421.753094,355.251644 422.341094,356.11031 C422.929094,356.968977 423.787761,357.39831 424.917094,357.39831 Z M424.917094,356.43231 C424.133094,356.43231 423.554427,356.100977 423.181094,355.43831 C422.807761,354.775644 422.621094,353.74431 422.621094,352.34431 C422.621094,350.94431 422.807761,349.917644 423.181094,349.26431 C423.554427,348.610977 424.133094,348.28431 424.917094,348.28431 C425.710427,348.28431 426.291427,348.608644 426.660094,349.25731 C427.028761,349.905977 427.213094,350.934977 427.213094,352.34431 C427.213094,353.74431 427.026427,354.775644 426.653094,355.43831 C426.279761,356.100977 425.701094,356.43231 424.917094,356.43231 Z M433.317094,357.39831 C434.446427,357.39831 435.305094,356.968977 435.893094,356.11031 C436.481094,355.251644 436.775094,353.99631 436.775094,352.34431 C436.775094,350.69231 436.481094,349.43931 435.893094,348.58531 C435.305094,347.73131 434.446427,347.30431 433.317094,347.30431 C432.187761,347.30431 431.329094,347.733644 430.741094,348.59231 C430.153094,349.450977 429.859094,350.70631 429.859094,352.35831 C429.859094,354.000977 430.153094,355.251644 430.741094,356.11031 C431.329094,356.968977 432.187761,357.39831 433.317094,357.39831 Z M433.317094,356.43231 C432.533094,356.43231 431.954427,356.100977 431.581094,355.43831 C431.207761,354.775644 431.021094,353.74431 431.021094,352.34431 C431.021094,350.94431 431.207761,349.917644 431.581094,349.26431 C431.954427,348.610977 432.533094,348.28431 433.317094,348.28431 C434.110427,348.28431 434.691427,348.608644 435.060094,349.25731 C435.428761,349.905977 435.613094,350.934977 435.613094,352.34431 C435.613094,353.74431 435.426427,354.775644 435.053094,355.43831 C434.679761,356.100977 434.101094,356.43231 433.317094,356.43231 Z" id="3,000" fill="#DBE5FD" fill-rule="nonzero"></path>
        <path d="M408.257094,421.820764 L408.257094,420.854764 L403.385094,420.854764 L406.185094,417.816764 C406.773094,417.172764 407.195427,416.589431 407.452094,416.066764 C407.708761,415.544098 407.837094,414.998098 407.837094,414.428764 C407.837094,413.635431 407.573427,413.005431 407.046094,412.538764 C406.518761,412.072098 405.802427,411.838764 404.897094,411.838764 C404.299761,411.838764 403.704761,411.948431 403.112094,412.167764 C402.519427,412.387098 402.027094,412.683431 401.635094,413.056764 L401.635094,413.056764 L402.069094,413.938764 C402.983761,413.182764 403.917094,412.804764 404.869094,412.804764 C405.447761,412.804764 405.895761,412.949431 406.213094,413.238764 C406.530427,413.528098 406.689094,413.943431 406.689094,414.484764 C406.689094,414.904764 406.584094,415.322431 406.374094,415.737764 C406.164094,416.153098 405.825761,416.622098 405.359094,417.144764 L405.359094,417.144764 L401.901094,420.952764 L401.901094,421.820764 L408.257094,421.820764 Z M410.581094,423.416764 C410.889094,423.108764 411.106094,422.793764 411.232094,422.471764 C411.358094,422.149764 411.421094,421.792764 411.421094,421.400764 L411.421094,421.400764 L411.421094,420.392764 L409.993094,420.392764 L409.993094,421.820764 L410.665094,421.820764 C410.618427,422.212764 410.413094,422.609431 410.049094,423.010764 L410.049094,423.010764 L410.581094,423.416764 Z M416.517094,421.932764 C417.646427,421.932764 418.505094,421.503431 419.093094,420.644764 C419.681094,419.786098 419.975094,418.530764 419.975094,416.878764 C419.975094,415.226764 419.681094,413.973764 419.093094,413.119764 C418.505094,412.265764 417.646427,411.838764 416.517094,411.838764 C415.387761,411.838764 414.529094,412.268098 413.941094,413.126764 C413.353094,413.985431 413.059094,415.240764 413.059094,416.892764 C413.059094,418.535431 413.353094,419.786098 413.941094,420.644764 C414.529094,421.503431 415.387761,421.932764 416.517094,421.932764 Z M416.517094,420.966764 C415.733094,420.966764 415.154427,420.635431 414.781094,419.972764 C414.407761,419.310098 414.221094,418.278764 414.221094,416.878764 C414.221094,415.478764 414.407761,414.452098 414.781094,413.798764 C415.154427,413.145431 415.733094,412.818764 416.517094,412.818764 C417.310427,412.818764 417.891427,413.143098 418.260094,413.791764 C418.628761,414.440431 418.813094,415.469431 418.813094,416.878764 C418.813094,418.278764 418.626427,419.310098 418.253094,419.972764 C417.879761,420.635431 417.301094,420.966764 416.517094,420.966764 Z M424.917094,421.932764 C426.046427,421.932764 426.905094,421.503431 427.493094,420.644764 C428.081094,419.786098 428.375094,418.530764 428.375094,416.878764 C428.375094,415.226764 428.081094,413.973764 427.493094,413.119764 C426.905094,412.265764 426.046427,411.838764 424.917094,411.838764 C423.787761,411.838764 422.929094,412.268098 422.341094,413.126764 C421.753094,413.985431 421.459094,415.240764 421.459094,416.892764 C421.459094,418.535431 421.753094,419.786098 422.341094,420.644764 C422.929094,421.503431 423.787761,421.932764 424.917094,421.932764 Z M424.917094,420.966764 C424.133094,420.966764 423.554427,420.635431 423.181094,419.972764 C422.807761,419.310098 422.621094,418.278764 422.621094,416.878764 C422.621094,415.478764 422.807761,414.452098 423.181094,413.798764 C423.554427,413.145431 424.133094,412.818764 424.917094,412.818764 C425.710427,412.818764 426.291427,413.143098 426.660094,413.791764 C427.028761,414.440431 427.213094,415.469431 427.213094,416.878764 C427.213094,418.278764 427.026427,419.310098 426.653094,419.972764 C426.279761,420.635431 425.701094,420.966764 424.917094,420.966764 Z M433.317094,421.932764 C434.446427,421.932764 435.305094,421.503431 435.893094,420.644764 C436.481094,419.786098 436.775094,418.530764 436.775094,416.878764 C436.775094,415.226764 436.481094,413.973764 435.893094,413.119764 C435.305094,412.265764 434.446427,411.838764 433.317094,411.838764 C432.187761,411.838764 431.329094,412.268098 430.741094,413.126764 C430.153094,413.985431 429.859094,415.240764 429.859094,416.892764 C429.859094,418.535431 430.153094,419.786098 430.741094,420.644764 C431.329094,421.503431 432.187761,421.932764 433.317094,421.932764 Z M433.317094,420.966764 C432.533094,420.966764 431.954427,420.635431 431.581094,419.972764 C431.207761,419.310098 431.021094,418.278764 431.021094,416.878764 C431.021094,415.478764 431.207761,414.452098 431.581094,413.798764 C431.954427,413.145431 432.533094,412.818764 433.317094,412.818764 C434.110427,412.818764 434.691427,413.143098 435.060094,413.791764 C435.428761,414.440431 435.613094,415.469431 435.613094,416.878764 C435.613094,418.278764 435.426427,419.310098 435.053094,419.972764 C434.679761,420.635431 434.101094,420.966764 433.317094,420.966764 Z" id="2,000" fill="#DBE5FD" fill-rule="nonzero"></path>
        <path d="M408.019094,488.155224 L408.019094,487.189224 L405.849094,487.189224 L405.849094,478.285224 L405.023094,478.285224 L402.433094,479.923224 L402.965094,480.805224 L404.701094,479.713224 L404.701094,487.189224 L402.531094,487.189224 L402.531094,488.155224 L408.019094,488.155224 Z M410.581094,489.751224 C410.889094,489.443224 411.106094,489.128224 411.232094,488.806224 C411.358094,488.484224 411.421094,488.127224 411.421094,487.735224 L411.421094,487.735224 L411.421094,486.727224 L409.993094,486.727224 L409.993094,488.155224 L410.665094,488.155224 C410.618427,488.547224 410.413094,488.94389 410.049094,489.345224 L410.049094,489.345224 L410.581094,489.751224 Z M416.517094,488.267224 C417.646427,488.267224 418.505094,487.83789 419.093094,486.979224 C419.681094,486.120557 419.975094,484.865224 419.975094,483.213224 C419.975094,481.561224 419.681094,480.308224 419.093094,479.454224 C418.505094,478.600224 417.646427,478.173224 416.517094,478.173224 C415.387761,478.173224 414.529094,478.602557 413.941094,479.461224 C413.353094,480.31989 413.059094,481.575224 413.059094,483.227224 C413.059094,484.86989 413.353094,486.120557 413.941094,486.979224 C414.529094,487.83789 415.387761,488.267224 416.517094,488.267224 Z M416.517094,487.301224 C415.733094,487.301224 415.154427,486.96989 414.781094,486.307224 C414.407761,485.644557 414.221094,484.613224 414.221094,483.213224 C414.221094,481.813224 414.407761,480.786557 414.781094,480.133224 C415.154427,479.47989 415.733094,479.153224 416.517094,479.153224 C417.310427,479.153224 417.891427,479.477557 418.260094,480.126224 C418.628761,480.77489 418.813094,481.80389 418.813094,483.213224 C418.813094,484.613224 418.626427,485.644557 418.253094,486.307224 C417.879761,486.96989 417.301094,487.301224 416.517094,487.301224 Z M424.917094,488.267224 C426.046427,488.267224 426.905094,487.83789 427.493094,486.979224 C428.081094,486.120557 428.375094,484.865224 428.375094,483.213224 C428.375094,481.561224 428.081094,480.308224 427.493094,479.454224 C426.905094,478.600224 426.046427,478.173224 424.917094,478.173224 C423.787761,478.173224 422.929094,478.602557 422.341094,479.461224 C421.753094,480.31989 421.459094,481.575224 421.459094,483.227224 C421.459094,484.86989 421.753094,486.120557 422.341094,486.979224 C422.929094,487.83789 423.787761,488.267224 424.917094,488.267224 Z M424.917094,487.301224 C424.133094,487.301224 423.554427,486.96989 423.181094,486.307224 C422.807761,485.644557 422.621094,484.613224 422.621094,483.213224 C422.621094,481.813224 422.807761,480.786557 423.181094,480.133224 C423.554427,479.47989 424.133094,479.153224 424.917094,479.153224 C425.710427,479.153224 426.291427,479.477557 426.660094,480.126224 C427.028761,480.77489 427.213094,481.80389 427.213094,483.213224 C427.213094,484.613224 427.026427,485.644557 426.653094,486.307224 C426.279761,486.96989 425.701094,487.301224 424.917094,487.301224 Z M433.317094,488.267224 C434.446427,488.267224 435.305094,487.83789 435.893094,486.979224 C436.481094,486.120557 436.775094,484.865224 436.775094,483.213224 C436.775094,481.561224 436.481094,480.308224 435.893094,479.454224 C435.305094,478.600224 434.446427,478.173224 433.317094,478.173224 C432.187761,478.173224 431.329094,478.602557 430.741094,479.461224 C430.153094,480.31989 429.859094,481.575224 429.859094,483.227224 C429.859094,484.86989 430.153094,486.120557 430.741094,486.979224 C431.329094,487.83789 432.187761,488.267224 433.317094,488.267224 Z M433.317094,487.301224 C432.533094,487.301224 431.954427,486.96989 431.581094,486.307224 C431.207761,485.644557 431.021094,484.613224 431.021094,483.213224 C431.021094,481.813224 431.207761,480.786557 431.581094,480.133224 C431.954427,479.47989 432.533094,479.153224 433.317094,479.153224 C434.110427,479.153224 434.691427,479.477557 435.060094,480.126224 C435.428761,480.77489 435.613094,481.80389 435.613094,483.213224 C435.613094,484.613224 435.426427,485.644557 435.053094,486.307224 C434.679761,486.96989 434.101094,487.301224 433.317094,487.301224 Z" id="1,000" fill="#DBE5FD" fill-rule="nonzero"></path>
        <g id="ticks" transform="translate(445.440646, 285.547919)" fill-rule="nonzero" stroke="#DBE5FD" stroke-linecap="square" stroke-width="1.28490028">
            <line x1="5.13960114" y1="1.28826325" x2="0" y2="1.28826325" id="1"></line>
            <line x1="5.13960114" y1="66.8181778" x2="0" y2="66.8181778" id="5"></line>
            <line x1="5.13960114" y1="132.348092" x2="0" y2="132.348092" id="6"></line>
            <line x1="5.13661623" y1="197.878007" x2="0" y2="197.878007" id="7"></line>
        </g>
        <path d="M344.761282,392.628718 C345.707949,392.628718 346.601282,392.482051 347.441282,392.188718 C348.281282,391.895385 348.987949,391.482051 349.561282,390.948718 L349.561282,390.948718 L348.701282,389.068718 C348.061282,389.575385 347.427949,389.945385 346.801282,390.178718 C346.174615,390.412051 345.507949,390.528718 344.801282,390.528718 C343.441282,390.528718 342.391282,390.088718 341.651282,389.208718 C340.911282,388.328718 340.541282,387.055385 340.541282,385.388718 C340.541282,383.735385 340.911282,382.468718 341.651282,381.588718 C342.391282,380.708718 343.441282,380.268718 344.801282,380.268718 C345.507949,380.268718 346.174615,380.385385 346.801282,380.618718 C347.427949,380.852051 348.061282,381.222051 348.701282,381.728718 L348.701282,381.728718 L349.561282,379.848718 C348.987949,379.315385 348.281282,378.902051 347.441282,378.608718 C346.601282,378.315385 345.707949,378.168718 344.761282,378.168718 C343.374615,378.168718 342.164615,378.465385 341.131282,379.058718 C340.097949,379.652051 339.304615,380.492051 338.751282,381.578718 C338.197949,382.665385 337.921282,383.935385 337.921282,385.388718 C337.921282,386.842051 338.197949,388.115385 338.751282,389.208718 C339.304615,390.302051 340.097949,391.145385 341.131282,391.738718 C342.164615,392.332051 343.374615,392.628718 344.761282,392.628718 Z M356.161282,392.608718 C357.161282,392.608718 358.037949,392.402051 358.791282,391.988718 C359.544615,391.575385 360.124615,390.982051 360.531282,390.208718 C360.937949,389.435385 361.141282,388.535385 361.141282,387.508718 C361.141282,386.482051 360.937949,385.585385 360.531282,384.818718 C360.124615,384.052051 359.544615,383.462051 358.791282,383.048718 C358.037949,382.635385 357.161282,382.428718 356.161282,382.428718 C355.161282,382.428718 354.284615,382.635385 353.531282,383.048718 C352.777949,383.462051 352.194615,384.052051 351.781282,384.818718 C351.367949,385.585385 351.161282,386.482051 351.161282,387.508718 C351.161282,388.535385 351.367949,389.435385 351.781282,390.208718 C352.194615,390.982051 352.777949,391.575385 353.531282,391.988718 C354.284615,392.402051 355.161282,392.608718 356.161282,392.608718 Z M356.141282,390.668718 C355.341282,390.668718 354.727949,390.402051 354.301282,389.868718 C353.874615,389.335385 353.661282,388.548718 353.661282,387.508718 C353.661282,386.482051 353.877949,385.698718 354.311282,385.158718 C354.744615,384.618718 355.361282,384.348718 356.161282,384.348718 C356.961282,384.348718 357.574615,384.618718 358.001282,385.158718 C358.427949,385.698718 358.641282,386.482051 358.641282,387.508718 C358.641282,388.548718 358.427949,389.335385 358.001282,389.868718 C357.574615,390.402051 356.954615,390.668718 356.141282,390.668718 Z M366.741282,392.608718 C367.394615,392.608718 367.981282,392.465385 368.501282,392.178718 C369.021282,391.892051 369.434615,391.482051 369.741282,390.948718 L369.741282,390.948718 L369.741282,392.448718 L372.181282,392.448718 L372.181282,382.668718 L369.681282,382.668718 L369.681282,388.108718 C369.681282,388.868718 369.471282,389.478718 369.051282,389.938718 C368.631282,390.398718 368.074615,390.628718 367.381282,390.628718 C366.781282,390.628718 366.341282,390.462051 366.061282,390.128718 C365.781282,389.795385 365.641282,389.282051 365.641282,388.588718 L365.641282,388.588718 L365.641282,382.668718 L363.141282,382.668718 L363.141282,388.568718 C363.141282,391.262051 364.341282,392.608718 366.741282,392.608718 Z M377.281282,392.448718 L377.281282,386.908718 C377.281282,386.148718 377.497949,385.542051 377.931282,385.088718 C378.364615,384.635385 378.941282,384.408718 379.661282,384.408718 C380.274615,384.408718 380.724615,384.582051 381.011282,384.928718 C381.297949,385.275385 381.441282,385.828718 381.441282,386.588718 L381.441282,386.588718 L381.441282,392.448718 L383.941282,392.448718 L383.941282,386.448718 C383.941282,385.102051 383.654615,384.095385 383.081282,383.428718 C382.507949,382.762051 381.634615,382.428718 380.461282,382.428718 C379.754615,382.428718 379.121282,382.575385 378.561282,382.868718 C378.001282,383.162051 377.554615,383.582051 377.221282,384.128718 L377.221282,384.128718 L377.221282,382.668718 L374.781282,382.668718 L374.781282,392.448718 L377.281282,392.448718 Z M391.181282,392.588718 C391.514615,392.588718 391.881282,392.568718 392.281282,392.528718 L392.281282,392.528718 L392.401282,390.668718 C392.081282,390.708718 391.774615,390.728718 391.481282,390.728718 C390.267949,390.728718 389.661282,390.075385 389.661282,388.768718 L389.661282,388.768718 L389.661282,384.548718 L392.241282,384.548718 L392.241282,382.668718 L389.661282,382.668718 L389.661282,379.748718 L387.161282,379.748718 L387.161282,382.668718 L385.281282,382.668718 L385.281282,384.548718 L387.161282,384.548718 L387.161282,388.808718 C387.161282,390.062051 387.487949,391.005385 388.141282,391.638718 C388.794615,392.272051 389.807949,392.588718 391.181282,392.588718 Z M397.461282,392.608718 C398.714615,392.608718 399.707949,392.342051 400.441282,391.808718 C401.174615,391.275385 401.541282,390.555385 401.541282,389.648718 C401.541282,388.902051 401.314615,388.298718 400.861282,387.838718 C400.407949,387.378718 399.694615,387.042051 398.721282,386.828718 L398.721282,386.828718 L397.061282,386.448718 C396.634615,386.355385 396.324615,386.222051 396.131282,386.048718 C395.937949,385.875385 395.841282,385.655385 395.841282,385.388718 C395.841282,385.028718 395.994615,384.748718 396.301282,384.548718 C396.607949,384.348718 397.034615,384.248718 397.581282,384.248718 C398.594615,384.248718 399.607949,384.615385 400.621282,385.348718 L400.621282,385.348718 L401.321282,383.648718 C400.827949,383.262051 400.257949,382.962051 399.611282,382.748718 C398.964615,382.535385 398.294615,382.428718 397.601282,382.428718 C396.801282,382.428718 396.097949,382.555385 395.491282,382.808718 C394.884615,383.062051 394.411282,383.418718 394.071282,383.878718 C393.731282,384.338718 393.561282,384.868718 393.561282,385.468718 C393.561282,386.188718 393.781282,386.775385 394.221282,387.228718 C394.661282,387.682051 395.334615,388.008718 396.241282,388.208718 L396.241282,388.208718 L397.841282,388.568718 C398.374615,388.702051 398.744615,388.848718 398.951282,389.008718 C399.157949,389.168718 399.261282,389.395385 399.261282,389.688718 C399.261282,390.035385 399.111282,390.302051 398.811282,390.488718 C398.511282,390.675385 398.074615,390.768718 397.501282,390.768718 C396.154615,390.768718 394.961282,390.388718 393.921282,389.628718 L393.921282,389.628718 L393.221282,391.368718 C393.727949,391.768718 394.344615,392.075385 395.071282,392.288718 C395.797949,392.502051 396.594615,392.608718 397.461282,392.608718 Z" id="Counts" fill="#FFFFFF" fill-rule="nonzero" transform="translate(369.731282, 385.398718) rotate(-90.000000) translate(-369.731282, -385.398718) "></path>
        <rect id="Rectangle-Copy" fill="#66C4FF" x="573.582183" y="409.54416" width="69.3846154" height="137.48433"></rect>
        <rect id="Rectangle-Copy-5" fill="#66C4FF" x="760.921214" y="408.02849" width="69.3846154" height="139"></rect>
        <rect id="Rectangle-Copy-2" fill="#66C4FF" x="667.251698" y="286.02849" width="69.3846154" height="261"></rect>
        <rect id="Rectangle-Copy-4" fill="#66C4FF" x="479.912667" y="485.02849" width="69.3846154" height="62"></rect>
        <path d="M858.551282,221 L858.551282,549.934473 L452.827144,549.934473 L451.551282,221 L858.551282,221 Z M857.266,222.284 L452.841,222.284 L454.107,548.649 L857.266,548.649 L857.266,222.284 Z" id="Rectangle-Copy-10" fill="#DBE5FD" fill-rule="nonzero"></path>
        <polygon id="Line-2" fill="#FFFFFF" fill-rule="nonzero" points="515.051282 590 519.551282 599 515.551 599 515.551282 644 514.551282 644 514.551 599 510.551282 599"></polygon>
        <polygon id="Line-2-Copy" fill="#FFFFFF" fill-rule="nonzero" points="610.051282 590 614.551282 599 610.551 599 610.551282 644 609.551282 644 609.551 599 605.551282 599"></polygon>
        <path d="M702.488786,577.112 C703.02212,577.112 703.539453,577.021333 704.040786,576.84 C704.54212,576.658667 704.95812,576.413333 705.288786,576.104 L705.288786,576.104 L704.856786,575.144 C704.120786,575.741333 703.37412,576.04 702.616786,576.04 C701.816786,576.04 701.192786,575.784 700.744786,575.272 C700.296786,574.76 700.072786,574.034667 700.072786,573.096 C700.072786,572.146667 700.296786,571.410667 700.744786,570.888 C701.192786,570.365333 701.816786,570.104 702.616786,570.104 C703.37412,570.104 704.120786,570.402667 704.856786,571 L704.856786,571 L705.288786,570.04 C704.979453,569.730667 704.57412,569.482667 704.072786,569.296 C703.571453,569.109333 703.059453,569.016 702.536786,569.016 C701.768786,569.016 701.099453,569.186667 700.528786,569.528 C699.95812,569.869333 699.515453,570.346667 699.200786,570.96 C698.88612,571.573333 698.728786,572.285333 698.728786,573.096 C698.728786,573.906667 698.880786,574.613333 699.184786,575.216 C699.488786,575.818667 699.923453,576.285333 700.488786,576.616 C701.05412,576.946667 701.720786,577.112 702.488786,577.112 Z" id="c" fill="#DBE5FD" fill-rule="nonzero"></path>
        <polygon id="Line-2-Copy-2" fill="#FFFFFF" fill-rule="nonzero" points="702.051282 590 706.551282 599 702.551 599 702.551282 644 701.551282 644 701.551 599 697.551282 599"></polygon>
        <path d="M794.360786,577.112 C794.968786,577.112 795.499453,576.978667 795.952786,576.712 C796.40612,576.445333 796.75012,576.066667 796.984786,575.576 L796.984786,575.576 L796.984786,577 L798.280786,577 L798.280786,565.72 L796.984786,565.72 L796.984786,570.552 C796.75012,570.061333 796.40612,569.682667 795.952786,569.416 C795.499453,569.149333 794.968786,569.016 794.360786,569.016 C793.67812,569.016 793.075453,569.181333 792.552786,569.512 C792.03012,569.842667 791.624786,570.312 791.336786,570.92 C791.048786,571.528 790.904786,572.232 790.904786,573.032 C790.904786,573.842667 791.048786,574.554667 791.336786,575.168 C791.624786,575.781333 792.03012,576.258667 792.552786,576.6 C793.075453,576.941333 793.67812,577.112 794.360786,577.112 Z M794.616786,576.04 C793.859453,576.04 793.27012,575.776 792.848786,575.248 C792.427453,574.72 792.216786,573.981333 792.216786,573.032 C792.216786,572.104 792.427453,571.384 792.848786,570.872 C793.27012,570.36 793.859453,570.104 794.616786,570.104 C795.37412,570.104 795.95812,570.36 796.368786,570.872 C796.779453,571.384 796.984786,572.114667 796.984786,573.064 C796.984786,574.013333 796.779453,574.746667 796.368786,575.264 C795.95812,575.781333 795.37412,576.04 794.616786,576.04 Z" id="d" fill="#DBE5FD" fill-rule="nonzero"></path>
        <polygon id="Line-2-Copy-3" fill="#FFFFFF" fill-rule="nonzero" points="795.051282 590 799.551282 599 795.551 599 795.551282 644 794.551282 644 794.551 599 790.551282 599"></polygon>
    </g>
</svg>