<?xml version="1.0" encoding="UTF-8"?>
<svg width="1214px" height="941px" viewBox="0 0 1214 941" version="1.1" xmlns="http://www.w3.org/2000/svg" xmlns:xlink="http://www.w3.org/1999/xlink">
    <title>Pie Chart 8 </title>
    <g id="Pie-Chart-8-" stroke="none" stroke-width="1" fill="none" fill-rule="evenodd">
        <path d="M726.068224,601.290949 L606.999332,419.117504 L433.214882,548.307998 L433.514776,548.707695 C474.440728,603.253675 538.499047,636 608,636 C650.302915,636 690.819947,623.928819 725.6471,601.561413 L726.068224,601.290949 Z" id="Combined-Shape" fill="#F03329" fill-rule="nonzero"></path>
        <path d="M692.762735,217.092477 C682.138672,213.430664 672.401367,209.887695 659.64236,206.397177 C645.098235,264.9807 627.550781,335.887475 607,419.117504 L725.227797,601.830709 L725.648086,601.560779 C787.69763,561.709581 826,493.12807 826,418 C826,329.559515 772.846955,250.921324 692.762735,217.092477 Z" id="Combined-Shape" fill="#1557FF" fill-rule="nonzero"></path>
        <path d="M608,200 L606.999332,200.007979 L607,419.117504 C630.265625,326.325626 647.83737,255.343261 659.715235,206.170409 C642.94971,202.091747 625.62089,200 608,200 Z" id="Combined-Shape" fill="#9A65FF" fill-rule="nonzero"></path>
        <path d="M608.000002,200 C573.002852,200 539.188564,208.254845 508.72275,223.865796 L508.279039,224.093158 L606.93639,419.117504 L608.000002,200.999 L608.000002,200 Z" id="Combined-Shape" fill="#F966FF" fill-rule="nonzero"></path>
        <path d="M606.93639,419.117504 L509.168706,223.637283 L508.722448,223.865951 C467.101392,245.193027 433.258443,279.499521 412.509991,321.414542 L412.288232,321.86253 L606.93639,419.117504 Z" id="Combined-Shape" fill="#FF8C00" fill-rule="nonzero"></path>
        <path d="M606.93639,419.117504 L412.731674,320.966708 L412.5098,321.414929 C397.772497,351.186667 390,384.039103 390,418 C390,465.804327 405.427707,511.273338 433.514776,548.707695 L433.815037,549.107882 L606.93639,419.117504 Z" id="Combined-Shape" fill="#FFD300" fill-rule="nonzero"></path>
        <path d="M434.414708,547.407766 L434.714602,547.807463 C475.666272,602.38772 539.480537,634.5 608,634.5 C649.331233,634.5 689.220179,622.891789 723.790559,600.96684 L724.836514,600.299291 L725.257639,600.028828 L726.87881,602.553071 L726.457685,602.823534 C691.163866,625.490652 650.324101,637.5 608,637.5 C539.228157,637.5 475.125955,605.588897 433.567382,551.261076 L432.31495,549.607927 L432.015056,549.208229 L434.414708,547.407766 Z" id="Path" fill="#F03329" fill-rule="nonzero"></path>
        <path d="M660.06357,204.711415 C661.951738,205.162215 663.927152,205.68225 665.984599,206.266999 C669.210498,207.183835 672.597037,208.247585 676.141336,209.443522 C679.172628,210.466358 682.172975,211.534666 685.368669,212.715852 L693.34642,215.710698 C774.485886,249.985298 827.5,329.495163 827.5,418 C827.5,483.746151 798.285093,545.389615 748.097144,586.996638 C741.684469,592.312901 734.964128,597.27136 727.963169,601.848033 L726.03839,603.092826 L724.417205,600.568591 L724.837494,600.298662 C732.279164,595.519263 739.405073,590.305713 746.18247,584.687087 C795.685684,543.647726 824.5,482.84951 824.5,418 C824.5,330.703908 772.210502,252.280812 692.247306,218.50114 L685.529027,215.975354 C681.902102,214.623707 678.559343,213.425601 675.18219,212.286063 C671.681305,211.104775 668.340255,210.055313 665.164447,209.152714 C663.482719,208.674749 661.858992,208.241422 660.296802,207.855353 L659.3669,207.629402 L660.06357,204.711415 Z" id="Combined-Shape" fill="#1557FF" fill-rule="nonzero"></path>
        <path d="M659.64236,206.398124 C659.546901,206.374454 659.451424,206.350849 659.355929,206.327309 C642.391331,202.145401 624.845447,200 607,200 L605.999332,200.007979" id="Path" stroke="#9A65FF" stroke-width="3" fill-rule="nonzero"></path>
        <path d="M608.000002,200 C607.584112,200 607.168389,200.001166 606.752836,200.003496 C572.199657,200.197232 538.826522,208.440359 508.72275,223.865796 L508.279039,224.093158" id="Path" stroke="#F966FF" stroke-width="3" fill-rule="nonzero"></path>
        <path d="M508.484664,222.302335 L509.852748,224.972231 L509.40649,225.200899 C468.480204,246.171968 435.13068,279.77776 414.476303,320.833602 L413.632544,322.527981 L410.94392,321.197079 L411.165679,320.749091 C431.845536,278.972642 465.446348,244.698765 506.783406,223.179201 L508.484664,222.302335 Z" id="Combined-Shape" fill="#FF8C00" fill-rule="nonzero"></path>
        <path d="M411.38736,320.301259 L414.075987,321.632156 L413.854113,322.080377 C399.137143,351.811039 391.5,384.454957 391.5,418 C391.5,464.685674 406.326656,509.468809 433.875885,546.68211 L435.014863,548.20765 L432.615211,550.008114 L432.31495,549.607927 C403.838997,511.655265 388.5,465.807623 388.5,418 C388.5,384.388706 396.064659,351.663784 410.647872,321.802226 L411.38736,320.301259 Z" id="Path" fill="#FFD300" fill-rule="nonzero"></path>
        <g id="40%-+-26%-+-17%-+-10" transform="translate(289.725000, 709.510000)" fill-rule="nonzero">
            <path d="M12.96,21.99 L12.96,17.85 L15.93,17.85 L15.93,14.85 L12.96,14.85 L12.96,0.84 L9.84,0.84 L8.52651283e-14,15 L8.52651283e-14,17.85 L9.18,17.85 L9.18,21.99 L12.96,21.99 Z M9.18,14.85 L3.6,14.85 L9.18,6.78 L9.18,14.85 Z M25.74,22.26 C28.24,22.26 30.15,21.33 31.47,19.47 C32.79,17.61 33.45,14.92 33.45,11.4 C33.45,7.9 32.79,5.23 31.47,3.39 C30.15,1.55 28.24,0.63 25.74,0.63 C23.24,0.63 21.33,1.55 20.01,3.39 C18.69,5.23 18.03,7.9 18.03,11.4 C18.03,14.94 18.69,17.635 20.01,19.485 C21.33,21.335 23.24,22.26 25.74,22.26 Z M25.74,19.23 C24.38,19.23 23.39,18.605 22.77,17.355 C22.15,16.105 21.84,14.12 21.84,11.4 C21.84,8.7 22.15,6.735 22.77,5.505 C23.39,4.275 24.38,3.66 25.74,3.66 C27.1,3.66 28.09,4.275 28.71,5.505 C29.33,6.735 29.64,8.7 29.64,11.4 C29.64,14.12 29.33,16.105 28.71,17.355 C28.09,18.605 27.1,19.23 25.74,19.23 Z M43.98,22.83 L56.37,1.44 L53.88,-5.68434189e-14 L41.49,21.39 L43.98,22.83 Z M41.37,13.47 C43.05,13.47 44.365,12.92 45.315,11.82 C46.265,10.72 46.74,9.11 46.74,6.99 C46.74,4.89 46.265,3.29 45.315,2.19 C44.365,1.09 43.05,0.54 41.37,0.54 C39.69,0.54 38.38,1.09 37.44,2.19 C36.5,3.29 36.03,4.89 36.03,6.99 C36.03,9.11 36.5,10.72 37.44,11.82 C38.38,12.92 39.69,13.47 41.37,13.47 Z M41.37,11.04 C40.63,11.04 40.085,10.725 39.735,10.095 C39.385,9.465 39.21,8.43 39.21,6.99 C39.21,5.57 39.385,4.545 39.735,3.915 C40.085,3.285 40.63,2.97 41.37,2.97 C42.11,2.97 42.66,3.29 43.02,3.93 C43.38,4.57 43.56,5.59 43.56,6.99 C43.56,8.43 43.385,9.465 43.035,10.095 C42.685,10.725 42.13,11.04 41.37,11.04 Z M56.46,22.2 C58.14,22.2 59.45,21.65 60.39,20.55 C61.33,19.45 61.8,17.84 61.8,15.72 C61.8,13.62 61.33,12.02 60.39,10.92 C59.45,9.82 58.14,9.27 56.46,9.27 C54.8,9.27 53.495,9.815 52.545,10.905 C51.595,11.995 51.12,13.59 51.12,15.69 C51.12,17.83 51.59,19.45 52.53,20.55 C53.47,21.65 54.78,22.2 56.46,22.2 Z M56.46,19.77 C55.72,19.77 55.17,19.455 54.81,18.825 C54.45,18.195 54.27,17.16 54.27,15.72 C54.27,14.32 54.45,13.3 54.81,12.66 C55.17,12.02 55.72,11.7 56.46,11.7 C57.2,11.7 57.75,12.02 58.11,12.66 C58.47,13.3 58.65,14.32 58.65,15.72 C58.65,17.16 58.47,18.195 58.11,18.825 C57.75,19.455 57.2,19.77 56.46,19.77 Z" id="40%" fill="#1557FF"></path>
            <polygon id="+" fill="#FFFFFF" points="81.54 20.73 81.54 14.73 87.54 14.73 87.54 12.09 81.54 12.09 81.54 6.09 78.9 6.09 78.9 12.09 72.9 12.09 72.9 14.73 78.9 14.73 78.9 20.73"></polygon>
            <path d="M113.76,21.99 L113.76,18.87 L104.37,18.87 L109.56,13.35 C110.8,12.03 111.68,10.835 112.2,9.765 C112.72,8.695 112.98,7.55 112.98,6.33 C112.98,4.57 112.36,3.17 111.12,2.13 C109.88,1.09 108.2,0.57 106.08,0.57 C104.76,0.57 103.445,0.795 102.135,1.245 C100.825,1.695 99.75,2.29 98.91,3.03 L98.91,3.03 L100.2,5.85 C102.12,4.39 104.03,3.66 105.93,3.66 C106.99,3.66 107.795,3.905 108.345,4.395 C108.895,4.885 109.17,5.61 109.17,6.57 C109.17,7.33 108.975,8.095 108.585,8.865 C108.195,9.635 107.58,10.48 106.74,11.4 L106.74,11.4 L99.54,19.14 L99.54,21.99 L113.76,21.99 Z M125.07,22.26 C126.43,22.26 127.65,21.96 128.73,21.36 C129.81,20.76 130.65,19.925 131.25,18.855 C131.85,17.785 132.15,16.57 132.15,15.21 C132.15,13.89 131.875,12.715 131.325,11.685 C130.775,10.655 130.01,9.855 129.03,9.285 C128.05,8.715 126.94,8.43 125.7,8.43 C124.56,8.43 123.53,8.685 122.61,9.195 C121.69,9.705 121,10.41 120.54,11.31 C120.58,8.83 121.03,6.935 121.89,5.625 C122.75,4.315 123.95,3.66 125.49,3.66 C127.21,3.66 129,4.39 130.86,5.85 L130.86,5.85 L132.15,3.03 C131.27,2.25 130.23,1.645 129.03,1.215 C127.83,0.785 126.6,0.57 125.34,0.57 C123.56,0.57 122.02,1.015 120.72,1.905 C119.42,2.795 118.425,4.085 117.735,5.775 C117.045,7.465 116.7,9.47 116.7,11.79 C116.7,15.15 117.425,17.735 118.875,19.545 C120.325,21.355 122.39,22.26 125.07,22.26 Z M124.89,19.2 C123.77,19.2 122.865,18.845 122.175,18.135 C121.485,17.425 121.14,16.49 121.14,15.33 C121.14,14.19 121.485,13.265 122.175,12.555 C122.865,11.845 123.76,11.49 124.86,11.49 C125.96,11.49 126.84,11.84 127.5,12.54 C128.16,13.24 128.49,14.17 128.49,15.33 C128.49,16.51 128.165,17.45 127.515,18.15 C126.865,18.85 125.99,19.2 124.89,19.2 Z M142.62,22.83 L155.01,1.44 L152.52,-5.68434189e-14 L140.13,21.39 L142.62,22.83 Z M140.01,13.47 C141.69,13.47 143.005,12.92 143.955,11.82 C144.905,10.72 145.38,9.11 145.38,6.99 C145.38,4.89 144.905,3.29 143.955,2.19 C143.005,1.09 141.69,0.54 140.01,0.54 C138.33,0.54 137.02,1.09 136.08,2.19 C135.14,3.29 134.67,4.89 134.67,6.99 C134.67,9.11 135.14,10.72 136.08,11.82 C137.02,12.92 138.33,13.47 140.01,13.47 Z M140.01,11.04 C139.27,11.04 138.725,10.725 138.375,10.095 C138.025,9.465 137.85,8.43 137.85,6.99 C137.85,5.57 138.025,4.545 138.375,3.915 C138.725,3.285 139.27,2.97 140.01,2.97 C140.75,2.97 141.3,3.29 141.66,3.93 C142.02,4.57 142.2,5.59 142.2,6.99 C142.2,8.43 142.025,9.465 141.675,10.095 C141.325,10.725 140.77,11.04 140.01,11.04 Z M155.1,22.2 C156.78,22.2 158.09,21.65 159.03,20.55 C159.97,19.45 160.44,17.84 160.44,15.72 C160.44,13.62 159.97,12.02 159.03,10.92 C158.09,9.82 156.78,9.27 155.1,9.27 C153.44,9.27 152.135,9.815 151.185,10.905 C150.235,11.995 149.76,13.59 149.76,15.69 C149.76,17.83 150.23,19.45 151.17,20.55 C152.11,21.65 153.42,22.2 155.1,22.2 Z M155.1,19.77 C154.36,19.77 153.81,19.455 153.45,18.825 C153.09,18.195 152.91,17.16 152.91,15.72 C152.91,14.32 153.09,13.3 153.45,12.66 C153.81,12.02 154.36,11.7 155.1,11.7 C155.84,11.7 156.39,12.02 156.75,12.66 C157.11,13.3 157.29,14.32 157.29,15.72 C157.29,17.16 157.11,18.195 156.75,18.825 C156.39,19.455 155.84,19.77 155.1,19.77 Z" id="26%" fill="#F03329"></path>
            <polygon id="+" fill="#FFFFFF" points="180.18 20.73 180.18 14.73 186.18 14.73 186.18 12.09 180.18 12.09 180.18 6.09 177.54 6.09 177.54 12.09 171.54 12.09 171.54 14.73 177.54 14.73 177.54 20.73"></polygon>
            <path d="M212.46,21.99 L212.46,18.87 L207.87,18.87 L207.87,0.84 L205.11,0.84 L198.84,4.62 L200.37,7.44 L204,5.25 L204,18.87 L199.41,18.87 L199.41,21.99 L212.46,21.99 Z M220.77,21.99 L230.37,3.72 L230.37,0.84 L215.64,0.84 L215.64,3.96 L226.23,3.96 L216.66,21.99 L220.77,21.99 Z M241.23,22.83 L253.62,1.44 L251.13,-5.68434189e-14 L238.74,21.39 L241.23,22.83 Z M238.62,13.47 C240.3,13.47 241.615,12.92 242.565,11.82 C243.515,10.72 243.99,9.11 243.99,6.99 C243.99,4.89 243.515,3.29 242.565,2.19 C241.615,1.09 240.3,0.54 238.62,0.54 C236.94,0.54 235.63,1.09 234.69,2.19 C233.75,3.29 233.28,4.89 233.28,6.99 C233.28,9.11 233.75,10.72 234.69,11.82 C235.63,12.92 236.94,13.47 238.62,13.47 Z M238.62,11.04 C237.88,11.04 237.335,10.725 236.985,10.095 C236.635,9.465 236.46,8.43 236.46,6.99 C236.46,5.57 236.635,4.545 236.985,3.915 C237.335,3.285 237.88,2.97 238.62,2.97 C239.36,2.97 239.91,3.29 240.27,3.93 C240.63,4.57 240.81,5.59 240.81,6.99 C240.81,8.43 240.635,9.465 240.285,10.095 C239.935,10.725 239.38,11.04 238.62,11.04 Z M253.71,22.2 C255.39,22.2 256.7,21.65 257.64,20.55 C258.58,19.45 259.05,17.84 259.05,15.72 C259.05,13.62 258.58,12.02 257.64,10.92 C256.7,9.82 255.39,9.27 253.71,9.27 C252.05,9.27 250.745,9.815 249.795,10.905 C248.845,11.995 248.37,13.59 248.37,15.69 C248.37,17.83 248.84,19.45 249.78,20.55 C250.72,21.65 252.03,22.2 253.71,22.2 Z M253.71,19.77 C252.97,19.77 252.42,19.455 252.06,18.825 C251.7,18.195 251.52,17.16 251.52,15.72 C251.52,14.32 251.7,13.3 252.06,12.66 C252.42,12.02 252.97,11.7 253.71,11.7 C254.45,11.7 255,12.02 255.36,12.66 C255.72,13.3 255.9,14.32 255.9,15.72 C255.9,17.16 255.72,18.195 255.36,18.825 C255,19.455 254.45,19.77 253.71,19.77 Z" id="17%" fill="#FFD300"></path>
            <polygon id="+" fill="#FFFFFF" points="278.79 20.73 278.79 14.73 284.79 14.73 284.79 12.09 278.79 12.09 278.79 6.09 276.15 6.09 276.15 12.09 270.15 12.09 270.15 14.73 276.15 14.73 276.15 20.73"></polygon>
            <path d="M311.07,21.99 L311.07,18.87 L306.48,18.87 L306.48,0.84 L303.72,0.84 L297.45,4.62 L298.98,7.44 L302.61,5.25 L302.61,18.87 L298.02,18.87 L298.02,21.99 L311.07,21.99 Z M321.6,22.26 C324.1,22.26 326.01,21.33 327.33,19.47 C328.65,17.61 329.31,14.92 329.31,11.4 C329.31,7.9 328.65,5.23 327.33,3.39 C326.01,1.55 324.1,0.63 321.6,0.63 C319.1,0.63 317.19,1.55 315.87,3.39 C314.55,5.23 313.89,7.9 313.89,11.4 C313.89,14.94 314.55,17.635 315.87,19.485 C317.19,21.335 319.1,22.26 321.6,22.26 Z M321.6,19.23 C320.24,19.23 319.25,18.605 318.63,17.355 C318.01,16.105 317.7,14.12 317.7,11.4 C317.7,8.7 318.01,6.735 318.63,5.505 C319.25,4.275 320.24,3.66 321.6,3.66 C322.96,3.66 323.95,4.275 324.57,5.505 C325.19,6.735 325.5,8.7 325.5,11.4 C325.5,14.12 325.19,16.105 324.57,17.355 C323.95,18.605 322.96,19.23 321.6,19.23 Z M339.84,22.83 L352.23,1.44 L349.74,-5.68434189e-14 L337.35,21.39 L339.84,22.83 Z M337.23,13.47 C338.91,13.47 340.225,12.92 341.175,11.82 C342.125,10.72 342.6,9.11 342.6,6.99 C342.6,4.89 342.125,3.29 341.175,2.19 C340.225,1.09 338.91,0.54 337.23,0.54 C335.55,0.54 334.24,1.09 333.3,2.19 C332.36,3.29 331.89,4.89 331.89,6.99 C331.89,9.11 332.36,10.72 333.3,11.82 C334.24,12.92 335.55,13.47 337.23,13.47 Z M337.23,11.04 C336.49,11.04 335.945,10.725 335.595,10.095 C335.245,9.465 335.07,8.43 335.07,6.99 C335.07,5.57 335.245,4.545 335.595,3.915 C335.945,3.285 336.49,2.97 337.23,2.97 C337.97,2.97 338.52,3.29 338.88,3.93 C339.24,4.57 339.42,5.59 339.42,6.99 C339.42,8.43 339.245,9.465 338.895,10.095 C338.545,10.725 337.99,11.04 337.23,11.04 Z M352.32,22.2 C354,22.2 355.31,21.65 356.25,20.55 C357.19,19.45 357.66,17.84 357.66,15.72 C357.66,13.62 357.19,12.02 356.25,10.92 C355.31,9.82 354,9.27 352.32,9.27 C350.66,9.27 349.355,9.815 348.405,10.905 C347.455,11.995 346.98,13.59 346.98,15.69 C346.98,17.83 347.45,19.45 348.39,20.55 C349.33,21.65 350.64,22.2 352.32,22.2 Z M352.32,19.77 C351.58,19.77 351.03,19.455 350.67,18.825 C350.31,18.195 350.13,17.16 350.13,15.72 C350.13,14.32 350.31,13.3 350.67,12.66 C351.03,12.02 351.58,11.7 352.32,11.7 C353.06,11.7 353.61,12.02 353.97,12.66 C354.33,13.3 354.51,14.32 354.51,15.72 C354.51,17.16 354.33,18.195 353.97,18.825 C353.61,19.455 353.06,19.77 352.32,19.77 Z" id="10%" fill="#FF8C00"></path>
            <polygon id="+" fill="#FFFFFF" points="377.4 20.73 377.4 14.73 383.4 14.73 383.4 12.09 377.4 12.09 377.4 6.09 374.76 6.09 374.76 12.09 368.76 12.09 368.76 14.73 374.76 14.73 374.76 20.73"></polygon>
            <path d="M402.21,22.23 C403.79,22.23 405.165,21.94 406.335,21.36 C407.505,20.78 408.41,19.96 409.05,18.9 C409.69,17.84 410.01,16.61 410.01,15.21 C410.01,13.89 409.735,12.72 409.185,11.7 C408.635,10.68 407.855,9.885 406.845,9.315 C405.835,8.745 404.67,8.46 403.35,8.46 C401.85,8.46 400.59,8.82 399.57,9.54 L399.57,9.54 L399.57,3.84 L409.05,3.84 L409.05,0.84 L395.79,0.84 L395.79,13.29 L398.1,13.29 C398.68,12.71 399.335,12.265 400.065,11.955 C400.795,11.645 401.57,11.49 402.39,11.49 C403.61,11.49 404.575,11.835 405.285,12.525 C405.995,13.215 406.35,14.15 406.35,15.33 C406.35,16.55 406,17.49 405.3,18.15 C404.6,18.81 403.59,19.14 402.27,19.14 C400.27,19.14 398.31,18.41 396.39,16.95 L396.39,16.95 L395.1,19.77 C395.94,20.51 397.005,21.105 398.295,21.555 C399.585,22.005 400.89,22.23 402.21,22.23 Z M420.45,22.83 L432.84,1.44 L430.35,-5.68434189e-14 L417.96,21.39 L420.45,22.83 Z M417.84,13.47 C419.52,13.47 420.835,12.92 421.785,11.82 C422.735,10.72 423.21,9.11 423.21,6.99 C423.21,4.89 422.735,3.29 421.785,2.19 C420.835,1.09 419.52,0.54 417.84,0.54 C416.16,0.54 414.85,1.09 413.91,2.19 C412.97,3.29 412.5,4.89 412.5,6.99 C412.5,9.11 412.97,10.72 413.91,11.82 C414.85,12.92 416.16,13.47 417.84,13.47 Z M417.84,11.04 C417.1,11.04 416.555,10.725 416.205,10.095 C415.855,9.465 415.68,8.43 415.68,6.99 C415.68,5.57 415.855,4.545 416.205,3.915 C416.555,3.285 417.1,2.97 417.84,2.97 C418.58,2.97 419.13,3.29 419.49,3.93 C419.85,4.57 420.03,5.59 420.03,6.99 C420.03,8.43 419.855,9.465 419.505,10.095 C419.155,10.725 418.6,11.04 417.84,11.04 Z M432.93,22.2 C434.61,22.2 435.92,21.65 436.86,20.55 C437.8,19.45 438.27,17.84 438.27,15.72 C438.27,13.62 437.8,12.02 436.86,10.92 C435.92,9.82 434.61,9.27 432.93,9.27 C431.27,9.27 429.965,9.815 429.015,10.905 C428.065,11.995 427.59,13.59 427.59,15.69 C427.59,17.83 428.06,19.45 429,20.55 C429.94,21.65 431.25,22.2 432.93,22.2 Z M432.93,19.77 C432.19,19.77 431.64,19.455 431.28,18.825 C430.92,18.195 430.74,17.16 430.74,15.72 C430.74,14.32 430.92,13.3 431.28,12.66 C431.64,12.02 432.19,11.7 432.93,11.7 C433.67,11.7 434.22,12.02 434.58,12.66 C434.94,13.3 435.12,14.32 435.12,15.72 C435.12,17.16 434.94,18.195 434.58,18.825 C434.22,19.455 433.67,19.77 432.93,19.77 Z" id="5%" fill="#F966FF"></path>
            <polygon id="+" fill="#FFFFFF" points="458.01 20.73 458.01 14.73 464.01 14.73 464.01 12.09 458.01 12.09 458.01 6.09 455.37 6.09 455.37 12.09 449.37 12.09 449.37 14.73 455.37 14.73 455.37 20.73"></polygon>
            <path d="M490.23,21.99 L490.23,18.87 L480.84,18.87 L486.03,13.35 C487.27,12.03 488.15,10.835 488.67,9.765 C489.19,8.695 489.45,7.55 489.45,6.33 C489.45,4.57 488.83,3.17 487.59,2.13 C486.35,1.09 484.67,0.57 482.55,0.57 C481.23,0.57 479.915,0.795 478.605,1.245 C477.295,1.695 476.22,2.29 475.38,3.03 L475.38,3.03 L476.67,5.85 C478.59,4.39 480.5,3.66 482.4,3.66 C483.46,3.66 484.265,3.905 484.815,4.395 C485.365,4.885 485.64,5.61 485.64,6.57 C485.64,7.33 485.445,8.095 485.055,8.865 C484.665,9.635 484.05,10.48 483.21,11.4 L483.21,11.4 L476.01,19.14 L476.01,21.99 L490.23,21.99 Z M501.09,22.83 L513.48,1.44 L510.99,-5.68434189e-14 L498.6,21.39 L501.09,22.83 Z M498.48,13.47 C500.16,13.47 501.475,12.92 502.425,11.82 C503.375,10.72 503.85,9.11 503.85,6.99 C503.85,4.89 503.375,3.29 502.425,2.19 C501.475,1.09 500.16,0.54 498.48,0.54 C496.8,0.54 495.49,1.09 494.55,2.19 C493.61,3.29 493.14,4.89 493.14,6.99 C493.14,9.11 493.61,10.72 494.55,11.82 C495.49,12.92 496.8,13.47 498.48,13.47 Z M498.48,11.04 C497.74,11.04 497.195,10.725 496.845,10.095 C496.495,9.465 496.32,8.43 496.32,6.99 C496.32,5.57 496.495,4.545 496.845,3.915 C497.195,3.285 497.74,2.97 498.48,2.97 C499.22,2.97 499.77,3.29 500.13,3.93 C500.49,4.57 500.67,5.59 500.67,6.99 C500.67,8.43 500.495,9.465 500.145,10.095 C499.795,10.725 499.24,11.04 498.48,11.04 Z M513.57,22.2 C515.25,22.2 516.56,21.65 517.5,20.55 C518.44,19.45 518.91,17.84 518.91,15.72 C518.91,13.62 518.44,12.02 517.5,10.92 C516.56,9.82 515.25,9.27 513.57,9.27 C511.91,9.27 510.605,9.815 509.655,10.905 C508.705,11.995 508.23,13.59 508.23,15.69 C508.23,17.83 508.7,19.45 509.64,20.55 C510.58,21.65 511.89,22.2 513.57,22.2 Z M513.57,19.77 C512.83,19.77 512.28,19.455 511.92,18.825 C511.56,18.195 511.38,17.16 511.38,15.72 C511.38,14.32 511.56,13.3 511.92,12.66 C512.28,12.02 512.83,11.7 513.57,11.7 C514.31,11.7 514.86,12.02 515.22,12.66 C515.58,13.3 515.76,14.32 515.76,15.72 C515.76,17.16 515.58,18.195 515.22,18.825 C514.86,19.455 514.31,19.77 513.57,19.77 Z" id="2%" fill="#9A65FF"></path>
            <path d="M544.65,11.73 L544.65,9.09 L530.01,9.09 L530.01,11.73 L544.65,11.73 Z M544.65,17.73 L544.65,15.09 L530.01,15.09 L530.01,17.73 L544.65,17.73 Z M570.93,21.99 L570.93,18.87 L566.34,18.87 L566.34,0.84 L563.58,0.84 L557.31,4.62 L558.84,7.44 L562.47,5.25 L562.47,18.87 L557.88,18.87 L557.88,21.99 L570.93,21.99 Z M581.46,22.26 C583.96,22.26 585.87,21.33 587.19,19.47 C588.51,17.61 589.17,14.92 589.17,11.4 C589.17,7.9 588.51,5.23 587.19,3.39 C585.87,1.55 583.96,0.63 581.46,0.63 C578.96,0.63 577.05,1.55 575.73,3.39 C574.41,5.23 573.75,7.9 573.75,11.4 C573.75,14.94 574.41,17.635 575.73,19.485 C577.05,21.335 578.96,22.26 581.46,22.26 Z M581.46,19.23 C580.1,19.23 579.11,18.605 578.49,17.355 C577.87,16.105 577.56,14.12 577.56,11.4 C577.56,8.7 577.87,6.735 578.49,5.505 C579.11,4.275 580.1,3.66 581.46,3.66 C582.82,3.66 583.81,4.275 584.43,5.505 C585.05,6.735 585.36,8.7 585.36,11.4 C585.36,14.12 585.05,16.105 584.43,17.355 C583.81,18.605 582.82,19.23 581.46,19.23 Z M599.46,22.26 C601.96,22.26 603.87,21.33 605.19,19.47 C606.51,17.61 607.17,14.92 607.17,11.4 C607.17,7.9 606.51,5.23 605.19,3.39 C603.87,1.55 601.96,0.63 599.46,0.63 C596.96,0.63 595.05,1.55 593.73,3.39 C592.41,5.23 591.75,7.9 591.75,11.4 C591.75,14.94 592.41,17.635 593.73,19.485 C595.05,21.335 596.96,22.26 599.46,22.26 Z M599.46,19.23 C598.1,19.23 597.11,18.605 596.49,17.355 C595.87,16.105 595.56,14.12 595.56,11.4 C595.56,8.7 595.87,6.735 596.49,5.505 C597.11,4.275 598.1,3.66 599.46,3.66 C600.82,3.66 601.81,4.275 602.43,5.505 C603.05,6.735 603.36,8.7 603.36,11.4 C603.36,14.12 603.05,16.105 602.43,17.355 C601.81,18.605 600.82,19.23 599.46,19.23 Z M617.7,22.83 L630.09,1.44 L627.6,-5.68434189e-14 L615.21,21.39 L617.7,22.83 Z M615.09,13.47 C616.77,13.47 618.085,12.92 619.035,11.82 C619.985,10.72 620.46,9.11 620.46,6.99 C620.46,4.89 619.985,3.29 619.035,2.19 C618.085,1.09 616.77,0.54 615.09,0.54 C613.41,0.54 612.1,1.09 611.16,2.19 C610.22,3.29 609.75,4.89 609.75,6.99 C609.75,9.11 610.22,10.72 611.16,11.82 C612.1,12.92 613.41,13.47 615.09,13.47 Z M615.09,11.04 C614.35,11.04 613.805,10.725 613.455,10.095 C613.105,9.465 612.93,8.43 612.93,6.99 C612.93,5.57 613.105,4.545 613.455,3.915 C613.805,3.285 614.35,2.97 615.09,2.97 C615.83,2.97 616.38,3.29 616.74,3.93 C617.1,4.57 617.28,5.59 617.28,6.99 C617.28,8.43 617.105,9.465 616.755,10.095 C616.405,10.725 615.85,11.04 615.09,11.04 Z M630.18,22.2 C631.86,22.2 633.17,21.65 634.11,20.55 C635.05,19.45 635.52,17.84 635.52,15.72 C635.52,13.62 635.05,12.02 634.11,10.92 C633.17,9.82 631.86,9.27 630.18,9.27 C628.52,9.27 627.215,9.815 626.265,10.905 C625.315,11.995 624.84,13.59 624.84,15.69 C624.84,17.83 625.31,19.45 626.25,20.55 C627.19,21.65 628.5,22.2 630.18,22.2 Z M630.18,19.77 C629.44,19.77 628.89,19.455 628.53,18.825 C628.17,18.195 627.99,17.16 627.99,15.72 C627.99,14.32 628.17,13.3 628.53,12.66 C628.89,12.02 629.44,11.7 630.18,11.7 C630.92,11.7 631.47,12.02 631.83,12.66 C632.19,13.3 632.37,14.32 632.37,15.72 C632.37,17.16 632.19,18.195 631.83,18.825 C631.47,19.455 630.92,19.77 630.18,19.77 Z" id="=100%" fill="#FFFFFF"></path>
        </g>
    </g>
</svg>